<?xml version="1.0" encoding="UTF-8" standalone="no"?>
<!-- Created with Inkscape (http://www.inkscape.org/) -->
<svg
   xmlns:dc="http://purl.org/dc/elements/1.1/"
   xmlns:cc="http://web.resource.org/cc/"
   xmlns:rdf="http://www.w3.org/1999/02/22-rdf-syntax-ns#"
   xmlns:svg="http://www.w3.org/2000/svg"
   xmlns="http://www.w3.org/2000/svg"
   xmlns:sodipodi="http://sodipodi.sourceforge.net/DTD/sodipodi-0.dtd"
   xmlns:inkscape="http://www.inkscape.org/namespaces/inkscape"
   id="svg2"
   sodipodi:version="0.32"
   inkscape:version="0.45.1"
   width="2552"
   height="1698"
   version="1.0"
   sodipodi:docbase="C:\Documents and Settings\Leylosss\Belgelerim"
   sodipodi:docname="Pigeon_silhouette_4874.svg"
   inkscape:output_extension="org.inkscape.output.svg.inkscape">
  <metadata
     id="metadata7">
    <rdf:RDF>
      <cc:Work
         rdf:about="">
        <dc:format>image/svg+xml</dc:format>
        <dc:type
           rdf:resource="http://purl.org/dc/dcmitype/StillImage" />
      </cc:Work>
    </rdf:RDF>
  </metadata>
  <defs
     id="defs5" />
  <sodipodi:namedview
     inkscape:window-height="573"
     inkscape:window-width="744"
     inkscape:pageshadow="2"
     inkscape:pageopacity="0.0"
     guidetolerance="10.0"
     gridtolerance="10.0"
     objecttolerance="10.0"
     borderopacity="1.0"
     bordercolor="#666666"
     pagecolor="#ffffff"
     id="base"
     inkscape:zoom="0.22202591"
     inkscape:cx="1276"
     inkscape:cy="849"
     inkscape:window-x="22"
     inkscape:window-y="29"
     inkscape:current-layer="svg2" />
  <path
     style="fill:#000000"
     d="M 920,1557.9503 C 920,1553.509 930.42156,1543.0891 936.76418,1541.1888 C 942.82545,1539.3728 952.86721,1539.7366 959.83693,1542.0246 C 965.38899,1543.8472 966.28554,1543.9037 968.82492,1542.5905 C 970.37633,1541.7883 972.28128,1540.366 973.05815,1539.4299 C 977.00553,1534.6736 988.68126,1530 996.61613,1530 C 998.95534,1530 1003.9362,1530.6325 1007.6846,1531.4056 C 1011.4331,1532.1786 1016.4098,1532.8254 1018.7439,1532.8428 C 1021.0781,1532.8602 1023.5379,1533.2144 1024.2101,1533.6299 C 1026.6288,1535.1247 1076.1412,1535.4964 1078.9933,1534.0412 C 1080.8102,1533.1141 1090.4387,1531.8128 1098,1531.4724 C 1110.076,1530.9288 1118.5175,1529.6522 1119.581,1528.2088 C 1120.3318,1527.1899 1121.8593,1526.8854 1124.581,1527.2121 C 1127.1344,1527.5186 1130.9132,1526.8666 1135.4252,1525.3412 C 1139.234,1524.0536 1144.4739,1523 1147.0694,1523 C 1152.0876,1523 1154.0823,1521.6173 1160.1949,1513.9017 C 1161.6771,1512.0307 1164.8271,1508.077 1167.1949,1505.1155 C 1175.5538,1494.6607 1181.5552,1487.0923 1186.4512,1480.8315 C 1211.5225,1448.7707 1221.517,1431.4648 1217.5291,1427.0187 C 1216.7799,1426.1834 1216.1828,1424.375 1216.2021,1423 C 1216.2648,1418.5403 1212.2591,1398.5799 1210.7218,1395.6919 C 1208.9404,1392.3453 1204.3095,1387 1203.1916,1387 C 1202.7554,1387 1201.4626,1385.0735 1200.3187,1382.719 C 1198.3099,1378.5844 1196.9369,1376.7112 1190.4937,1369.3151 C 1187.8435,1366.2729 1187.1807,1365.9808 1184.8977,1366.8488 C 1182.5269,1367.7502 1182.1954,1367.5466 1180.9769,1364.4412 C 1179.9403,1361.7992 1179.3533,1361.2918 1178.323,1362.1469 C 1177.2913,1363.0031 1177,1362.7418 1177,1360.9603 C 1177,1357.897 1172.2863,1350 1170.4578,1350 C 1169.656,1350 1169,1349.6302 1169,1349.1783 C 1169,1348.2181 1161.6525,1344.9743 1154.5,1342.7767 C 1151.75,1341.9318 1145.7875,1339.8477 1141.25,1338.1454 C 1134.7116,1335.6924 1133,1335.3563 1133,1336.5252 C 1133,1337.3363 1133.45,1338 1134,1338 C 1134.55,1338 1135,1339.0923 1135,1340.4274 C 1135,1341.7817 1136.035,1343.669 1137.3412,1344.6964 C 1139.6327,1346.4989 1142.6132,1351 1141.5153,1351 C 1140.8858,1351 1134.3433,1347.0323 1128.7534,1343.2606 C 1123.5385,1339.742 1117.2318,1338.656 1115.7541,1341.0221 C 1114.4181,1343.1614 1112.9394,1342.6964 1107.2272,1338.3404 C 1104.8771,1336.5483 1101.2771,1334.8154 1099.2272,1334.4895 C 1097.1772,1334.1636 1093.711,1333.4922 1091.5245,1332.9976 C 1088.558,1332.3264 1087.1621,1332.4425 1086.0245,1333.4547 C 1085.0653,1334.3082 1082.4355,1334.7443 1078.9327,1334.6308 C 1074.397,1334.4837 1072.0808,1333.6907 1066.4327,1330.3512 C 1062.6197,1328.0967 1052.5646,1322.131 1044.088,1317.094 C 1035.6115,1312.057 1026.8365,1307.5203 1024.588,1307.0123 C 1022.3396,1306.5044 1014.425,1302.9935 1007,1299.2105 C 994.61737,1292.9016 984.50848,1289.1582 983.25066,1290.416 C 982.97232,1290.6943 984.84772,1293.2612 987.4182,1296.1202 C 989.98867,1298.9792 991.8564,1301.9318 991.5687,1302.6816 C 991.281,1303.4313 992.66271,1305.8347 994.63917,1308.0224 C 1000.5916,1314.611 995.18053,1313.0596 984.12279,1305.0071 C 977.23059,1299.9881 971,1297.4293 971,1299.6178 C 971,1300.378 970.78967,1301 970.5326,1301 C 970.27553,1301 965.88803,1298.23 960.7826,1294.8444 C 947.31297,1285.9122 936.84961,1276.7397 918.96493,1258.1858 C 903.74297,1242.3943 898.63428,1238 895.49727,1238 C 893.76724,1238 894.22122,1239.318 900.24727,1251.7903 C 902.4503,1256.3499 904.04106,1260.2923 903.7823,1260.551 C 903.52354,1260.8098 899.9789,1257.7542 895.90532,1253.7608 C 886.91828,1244.9506 882.99109,1241.6756 882.2737,1242.393 C 881.78921,1242.8775 889.48376,1256.772 890.91659,1258 C 891.23747,1258.275 892.175,1259.3598 893,1260.4107 C 894.40426,1262.1994 894.37235,1262.2408 892.5,1261.0604 C 891.4,1260.3669 887.35,1255.9512 883.5,1251.2478 C 879.65,1246.5443 873.2375,1238.8748 869.25,1234.2045 C 865.2625,1229.5342 862,1225.3162 862,1224.8313 C 862,1224.3463 859.31544,1221.0639 856.03432,1217.5369 C 852.7532,1214.0099 849.10364,1209.0713 847.92419,1206.5621 C 846.74475,1204.053 845.3242,1202 844.76743,1202 C 844.1877,1202 844.28709,1202.641 845,1203.5 C 846.56306,1205.3834 845.19197,1205.4678 843.07874,1203.6183 C 841.10778,1201.8933 836.99983,1200.5851 837.0005,1201.6826 C 837.00078,1202.1322 837.90078,1204.8673 839.0005,1207.7607 C 841.50282,1214.3444 841.53652,1215.3575 839.21181,1214.1134 C 837.15641,1213.0133 829.22818,1203.3488 826.98983,1199.2147 C 824.93918,1195.4274 810.05405,1175.5121 805.3241,1170.2275 C 801.57315,1166.0367 801.41392,1165.9704 797,1166.7598 C 792.96106,1167.4821 792.53005,1167.8208 792.79325,1170.0662 C 793.22187,1173.7227 789.54955,1173.6321 785.63827,1169.8898 C 783.91222,1168.2384 781.375,1166.2803 780,1165.5385 C 777.1348,1163.9929 766,1152.6494 766,1151.2761 C 766,1150.7741 764.38231,1148.5941 762.40514,1146.4317 L 758.81029,1142.5 L 759.32711,1145.5 C 760.18271,1150.4666 763.59855,1161.2091 765.84552,1166 C 767.96936,1170.5283 768.78484,1175.2572 767.13024,1173.45 C 766.65187,1172.9275 764.32538,1168.9 761.96025,1164.5 C 759.59513,1160.1 756.76696,1154.925 755.67543,1153 C 754.58389,1151.075 752.46633,1147.1982 750.96973,1144.3848 C 749.47312,1141.5714 746.51287,1136.1714 744.39139,1132.3848 C 742.26991,1128.5982 738.82067,1122.35 736.72642,1118.5 C 731.42717,1108.758 718.41645,1082.0247 717.50237,1079 C 717.08684,1077.625 714.13516,1069.9348 710.94309,1061.9107 C 701.75734,1038.8198 692.33569,1010.13 689.13398,995.5 C 683.73402,970.82515 677.76779,934.46346 675.99065,915.39683 C 674.86813,903.35358 672.80293,885.33224 671.40131,875.34942 C 668.69564,856.07869 668.03666,848.97422 665.57164,812.5 C 664.71672,799.85 663.30975,779.825 662.44502,768 C 661.24432,751.58043 660.7982,726.41456 660.5571,661.5 C 660.38346,614.75 660.00635,571.55 659.71906,565.5 C 658.69128,543.85539 657.35652,531.49071 655.56301,527 C 654.07746,523.28037 653.78433,519.74097 653.87267,506.59014 C 653.9413,496.37453 653.58745,490.20784 652.88402,489.36025 C 652.26558,488.61508 651.78596,484.02252 651.78268,478.81466 C 651.77856,472.25041 651.3382,468.91959 650.25614,467.26816 C 649.17383,465.61636 648.91363,463.64682 649.35361,460.43681 C 650.1136,454.89208 647.87065,453.20013 644.92205,457.09391 C 643.1163,459.4785 643.08645,459.48212 641.58181,457.5 C 640.7468,456.4 640.0493,454.46928 640.0318,453.20951 C 640.01431,451.94974 638.98931,449.55198 637.75402,447.88117 C 635.91292,445.39094 635.39232,443.00974 634.86606,434.67166 C 633.89404,419.27081 628.49792,409.26429 620.27395,407.61217 C 610.20057,405.58852 595.73959,404.06828 594.22496,404.87371 C 593.27623,405.37822 589.35,406.53383 585.5,407.44174 C 581.65,408.34965 577.71861,409.52168 576.76357,410.04625 C 575.80853,410.57081 574.37155,411 573.57027,411 C 572.769,411 571.52539,411.78807 570.8067,412.75126 C 569.52838,414.46448 563.68375,417 561.01293,417 C 560.27315,417 556.4801,418.96673 552.58393,421.37052 C 542.56813,427.5499 537.38163,430.27414 530.5,432.97026 C 527.2,434.26314 523.78848,435.92473 522.91885,436.66266 C 520.66496,438.57522 520,437.39222 520,431.46982 C 520,415.85845 524.98523,405.35089 539.2006,391 C 548.06532,382.05077 550.24143,379.18163 553.93464,371.57357 C 560.07782,358.91853 563.17083,354.38319 569.51341,348.73014 C 574.98405,343.85424 575.07591,343.68212 574.90125,338.63484 C 574.55075,328.5061 576.24549,314.4843 578.40206,309.67016 C 580.89965,304.09478 585,293.19394 585,292.12946 C 585,291.56327 586.77664,287.00379 588.94809,281.99726 C 594.9877,268.07225 608.75051,248.7719 619.18616,239.59276 C 626.7787,232.91441 640.19467,223.90907 649.5,219.24489 C 671.07349,208.43147 704.31515,202.68705 731.42937,205.08686 C 744.70593,206.26193 770.40534,211.53306 781.76561,215.41117 C 790.60182,218.42764 814.2989,231.31476 818.66826,235.47986 C 820.4108,237.14094 823.3358,239.53895 825.16826,240.80877 C 827.00072,242.07859 830.76823,244.77859 833.54051,246.80877 C 836.31278,248.83895 841.48336,252.525 845.03068,255 C 852.06782,259.90988 858.95172,266.66136 867.97199,277.5 C 871.17609,281.35 877.26059,288.1 881.49311,292.5 C 889.37786,300.69675 895.27781,309.44179 896.2088,314.31193 C 896.72602,317.0176 896.69957,317.03317 894.27984,315.4477 C 890.95531,313.26939 889.88368,314.67253 892.96444,317.17002 C 894.31989,318.26884 896.11989,320.19459 896.96444,321.44946 C 897.809,322.70432 899.67966,325.49098 901.12146,327.64202 C 902.56326,329.79306 904.07342,333.11608 904.47738,335.0265 C 905.79493,341.25755 917.58375,366.62806 923.5621,376.09837 C 924.90294,378.22241 926.03398,380.7567 926.0755,381.73013 C 926.11703,382.70356 927.88914,386.65 930.01354,390.5 C 935.47461,400.39697 944,417.59268 944,418.71069 C 944,419.22806 945.11938,420.70298 946.48751,421.98827 C 948.31685,423.70684 948.69627,424.66105 947.92148,425.59461 C 946.77705,426.97356 952.19897,435.99629 961.22501,447.73329 C 963.86146,451.16159 968.2373,457.36534 970.94909,461.5194 C 979.72886,474.96866 995.00881,491.56017 1003.9844,497.39031 C 1007.568,499.71804 1011.625,502.38728 1013,503.32194 C 1020.1097,508.15481 1023.4573,510.28571 1027.8426,512.77021 C 1030.4927,514.2716 1033.8611,516.33851 1035.3279,517.36335 C 1037.951,519.19603 1038.2295,519.18047 1052.2475,516.4176 C 1068.6551,513.18375 1088.7545,512.35638 1102.4223,514.35222 C 1111.9753,515.7472 1131.6053,514.84586 1135.1849,512.84786 C 1138.2501,511.13702 1168.8543,511.01169 1174.5,512.68686 C 1176.7,513.33963 1180.75,514.40128 1183.5,515.04606 C 1186.25,515.69085 1190.3,516.80284 1192.5,517.51715 C 1194.7,518.23146 1199.5619,519.58891 1203.3043,520.5337 C 1207.0467,521.47849 1210.6467,522.77846 1211.3043,523.42251 C 1211.9619,524.06656 1215.0698,525.63006 1218.2107,526.89695 C 1223.9341,529.20551 1228.2129,532.39143 1224.17,531.33421 C 1223.1006,531.05456 1221.9112,531.33468 1221.5268,531.95669 C 1220.3673,533.83272 1223.0267,535.98752 1226.3645,535.87652 C 1228.089,535.81917 1233.4592,537.17349 1238.2981,538.88613 C 1243.1371,540.59876 1247.8846,542 1248.8481,542 C 1249.8117,542 1251.0275,542.37175 1251.55,542.82612 C 1252.0725,543.28049 1254.525,544.23267 1257,544.9421 C 1261.7597,546.30639 1266.1943,547.72304 1269.5,548.93525 C 1270.6,549.33863 1279.0785,553.3619 1288.341,557.87587 C 1300.1434,563.62755 1305.0254,566.49147 1304.6583,567.44808 C 1304.0651,568.99405 1307.3523,570.49991 1313.5,571.49833 C 1315.7,571.85562 1318.4223,572.74093 1319.5495,573.46568 C 1321.6387,574.80886 1331.5935,578.51557 1349.5,584.61783 C 1355,586.49214 1361.525,588.97686 1364,590.13943 C 1366.475,591.302 1371.875,593.58454 1376,595.21175 C 1386.25,599.25512 1411.3889,611.54025 1417.5,615.49239 C 1420.25,617.27086 1424.775,619.9365 1427.5555,621.41604 C 1430.336,622.89557 1434.836,625.78424 1437.5555,627.83529 C 1440.275,629.88635 1444.3,632.48302 1446.5,633.60566 C 1457.2446,639.08856 1479.0274,652.92524 1497.382,665.92641 C 1501.8674,669.10361 1505.7558,675.91488 1503.7809,677.13544 C 1502.1641,678.13465 1506.6105,683 1509.1404,683 C 1510.1259,683 1512.4099,683.65524 1514.2161,684.45608 C 1516.0222,685.25693 1525.15,688.88545 1534.5,692.51948 C 1554.2698,700.20332 1569.0687,706.66094 1580.957,712.79142 C 1590.37,717.64548 1596.4047,719.9636 1599.6849,719.98545 C 1600.8866,719.99345 1603.1366,720.51039 1604.6849,721.1342 C 1606.2332,721.75801 1609.75,722.33765 1612.5,722.42229 C 1615.25,722.50693 1625.825,724.49929 1636,726.84977 C 1646.175,729.20025 1658.1,731.75837 1662.5,732.53447 C 1669.9504,733.84864 1690.67,738.86255 1697.5,741.00408 C 1703.3654,742.84316 1718.6685,745.23856 1730,746.0913 C 1748.6436,747.4943 1782.7583,749.18699 1793,749.21721 C 1806.8254,749.258 1838.9611,748.14206 1839.8541,747.59016 C 1840.2747,747.33026 1843.742,746.89145 1847.5594,746.61504 C 1872.5449,744.80587 1875,744.73805 1875,745.85705 C 1875,746.48567 1874.5845,747 1874.0767,747 C 1872.2222,747 1867,752.23115 1867,754.08889 C 1867,756.68229 1872.7029,756.68303 1877.1928,754.09021 C 1885.8676,749.08082 1887.5837,748.91435 1935.4524,748.43888 C 1987.0613,747.92626 1999.6212,746.98902 2055,739.51803 C 2077.4354,736.49135 2119.7259,732.7024 2123.2504,733.40325 C 2124.7632,733.70406 2127.2382,733.46741 2128.7504,732.87737 C 2132.1718,731.54245 2154.0729,730.51178 2176.5,730.63025 C 2194.3797,730.7247 2200.2238,731.37475 2203.4725,733.63042 C 2204.5574,734.38369 2206.9403,735 2208.7678,735 C 2212.04,735 2212.0803,735.05478 2211.4167,738.59217 L 2210.7428,742.18435 L 2213.8218,740.59217 C 2218.4259,738.21125 2225,738.67738 2225,741.38475 C 2225,742.02867 2223.9875,743.44303 2222.75,744.52776 C 2220.5777,746.43186 2220.0964,746.63403 2217.1387,746.88465 C 2216.1336,746.96982 2215.9492,747.91588 2216.434,750.5 C 2217.0259,753.65479 2216.8694,754 2214.8479,754 C 2213.6144,754 2208.0815,756.25499 2202.5526,759.01109 C 2197.0236,761.76719 2188,765.55907 2182.5,767.4375 C 2177,769.31593 2168,772.4963 2162.5,774.505 C 2140.2879,782.61727 2124.3194,787.93625 2098,795.98947 C 2063.3835,806.58146 1993.2592,829.86262 1961,841.47333 C 1942.8186,848.01716 1938,850.20195 1938,851.90173 C 1938,853.24773 1942.848,854.77741 1951,856.00356 C 1960.8814,857.48984 1973.3949,859.74001 1984.5,862.0275 C 2002.139,865.66088 2014.6427,867.9928 2024.5,869.48741 C 2030,870.32134 2039.45,871.89779 2045.5,872.99063 C 2051.55,874.08347 2058.5554,874.98265 2061.0676,874.9888 C 2063.5798,874.99496 2068.9798,875.91897 2073.0676,877.04216 C 2077.1554,878.16535 2082.3,879.3193 2084.5,879.60649 C 2093.2807,880.75273 2122.4924,890.10397 2131.4768,894.64469 C 2141.3808,899.65019 2141.7596,900.39014 2134,899.57329 C 2121.99,898.309 2086.7751,897.49884 2050.5,897.65226 C 2012.1677,897.81438 1984.8345,899.34528 1947,903.44916 C 1934.625,904.79147 1919.325,906.35567 1913,906.92515 C 1906.675,907.49463 1891.6,909.06698 1879.5,910.41926 C 1854.8427,913.17492 1836.2973,914.56646 1805.5914,915.9649 C 1785.3,916.88904 1780.5064,917.79409 1784.0084,920.03984 C 1785.8711,921.23437 1822.0472,932.80248 1835.5,936.50541 C 1857.036,942.4333 1883.3902,951.99385 1904.9305,961.69282 C 1907.9173,963.03767 1913.5423,965.18027 1917.4305,966.45414 C 1935.2094,972.27891 1969.2668,987.65526 1975.8938,992.84936 C 1979.4637,995.64732 1977.9105,996.9192 1972.2686,995.81796 C 1969.6459,995.30602 1965.3686,995.15225 1962.7635,995.47624 C 1959.4081,995.89354 1957.1184,995.59547 1954.911,994.45398 C 1949.8715,991.84795 1942.8198,989.95598 1943.2707,991.3309 C 1944.4115,994.80888 1951.6324,997.60715 1987.5,1008.4708 C 2022.4868,1019.0676 2054.8689,1030.3994 2070.6511,1037.5686 C 2072.3843,1038.3559 2074.0767,1039 2074.412,1039 C 2074.7474,1039 2076.9294,1039.8478 2079.2609,1040.8839 C 2081.5924,1041.9201 2090.475,1045.3187 2099,1048.4364 C 2107.525,1051.5541 2116.525,1054.9855 2119,1056.0618 C 2133.5642,1062.3951 2194.8546,1081.9476 2228.7745,1091.0815 C 2232.7755,1092.1589 2237.9505,1093.6696 2240.2745,1094.4387 C 2247.183,1096.725 2257.7686,1099.7323 2270,1102.8834 C 2276.325,1104.5129 2285.1,1106.8154 2289.5,1108 C 2293.9,1109.1846 2302.45,1111.439 2308.5,1113.0098 C 2319.3547,1115.828 2323.7559,1117.0082 2337.5,1120.7868 C 2341.35,1121.8453 2352.375,1124.8486 2362,1127.4609 C 2371.625,1130.0732 2384,1133.462 2389.5,1134.9917 C 2395,1136.5213 2404.9,1139.1821 2411.5,1140.9045 C 2418.1,1142.627 2424.85,1144.443 2426.5,1144.9402 C 2428.15,1145.4373 2432.875,1146.6196 2437,1147.5675 C 2445.2309,1149.4588 2446.2613,1149.9701 2445.2084,1151.6405 C 2444.5046,1152.7569 2434.6655,1152.0184 2409,1148.9227 C 2396.1956,1147.3782 2387.7881,1147.2479 2387.3212,1148.5866 C 2386.9708,1149.5914 2402.0391,1155.6888 2414.9658,1159.7731 C 2419.1498,1161.095 2420.9631,1162.3207 2422.6984,1165 C 2423.9452,1166.925 2425.3482,1168.9632 2425.816,1169.5294 C 2426.2839,1170.0956 2426.9314,1172.1898 2427.2549,1174.1833 C 2427.7527,1177.2511 2427.5318,1177.8892 2425.8162,1178.3378 C 2422.7746,1179.1332 2424.1662,1181.346 2428.3269,1182.33 C 2430.3471,1182.8078 2432,1183.5515 2432,1183.9828 C 2432,1185.0914 2427.3669,1185.8448 2425.9467,1184.9671 C 2425.2964,1184.5651 2421.7798,1184.4186 2418.1321,1184.6416 C 2414.4844,1184.8645 2410.2625,1185.0292 2408.75,1185.0076 C 2407.2375,1184.9859 2406,1185.4254 2406,1185.9841 C 2406,1186.5429 2405.0406,1187 2403.868,1187 C 2402.6955,1187 2400.1174,1188.0004 2398.1391,1189.223 C 2395.841,1190.6433 2392.9096,1191.4558 2390.0211,1191.473 C 2386.0912,1191.4965 2385.4579,1191.797 2385.1777,1193.7708 C 2384.9192,1195.5925 2385.6115,1196.3462 2388.6777,1197.5815 C 2399.7966,1202.0608 2405.1083,1205.4936 2408.0758,1210.1181 C 2409.723,1212.685 2411.9939,1215.0266 2413.1223,1215.3217 C 2416.0528,1216.0881 2415.1652,1219.4572 2411.9816,1219.6515 C 2410.6167,1219.7348 2408.8475,1219.8473 2408.05,1219.9015 C 2406.9222,1219.9781 2406.8667,1220.2667 2407.8,1221.2 C 2408.46,1221.86 2409.0001,1222.6475 2409.0001,1222.95 C 2409.0002,1223.2525 2405.0627,1223.5301 2400.2501,1223.5668 C 2388.6398,1223.6555 2379.1741,1224.9688 2377.4066,1226.7363 C 2376.3819,1227.7609 2374.843,1227.9803 2372.0226,1227.5038 C 2369.8505,1227.1369 2367.4944,1227.2109 2366.7867,1227.6683 C 2366.079,1228.1257 2363.925,1228.5 2362,1228.5 C 2357.0138,1228.5 2357.4682,1231.0049 2362.9297,1233.6256 C 2367.6487,1235.89 2367.5479,1236.036 2360.25,1237.5048 C 2358.4625,1237.8646 2357,1238.7515 2357,1239.4759 C 2357,1240.9224 2363.4901,1247 2365.0348,1247 C 2365.5657,1247 2366.9426,1247.9426 2368.0946,1249.0946 L 2370.1892,1251.1892 L 2367.5081,1252.5802 C 2365.6143,1253.5627 2363.7393,1253.7268 2361.1235,1253.1391 C 2356.3355,1252.0633 2344.0251,1253.5464 2342.1461,1255.4253 C 2340.3914,1257.18 2341.2083,1258.5802 2348.8947,1266.9932 C 2352.2545,1270.6707 2353.5821,1272.8193 2352.9109,1273.4932 C 2352.3595,1274.047 2348.219,1274.725 2343.7099,1275 C 2335.5209,1275.4994 2335.5109,1275.5034 2334.9988,1278.5 C 2334.2131,1283.0968 2329.7266,1283.7954 2315.4098,1281.5501 C 2308.5224,1280.47 2301.8088,1279.9809 2298.7847,1280.3391 C 2293.4138,1280.9752 2282.4521,1279.7997 2272.5,1277.5203 C 2269.2,1276.7645 2261.775,1275.1421 2256,1273.9151 C 2238.8778,1270.2771 2190.8603,1259.2948 2175,1255.3892 C 2169.225,1253.9672 2157.75,1251.2853 2149.5,1249.4297 C 2133.0091,1245.7204 2131.9684,1245.444 2117.5,1240.9306 C 2109.0781,1238.3034 2105.6063,1237.7648 2095.5,1237.5173 C 2088.3672,1237.3427 2072.1431,1235.5942 2055.5,1233.2065 C 2040.1,1230.9971 2025.025,1228.8846 2022,1228.5121 C 2011.8547,1227.2628 1993.6406,1223.848 1976.1076,1219.9082 C 1966.5418,1217.7587 1956.7138,1216 1954.2675,1216 L 1949.8199,1216 L 1950.1599,1220.75 C 1950.5964,1226.847 1950.2876,1226.8948 1931.7616,1223.5985 C 1923.9177,1222.2028 1911.65,1220.1165 1904.5,1218.9623 C 1897.35,1217.8081 1888.96,1216.2194 1885.8557,1215.4319 C 1880.7327,1214.1323 1866.7847,1213.4657 1869.75,1214.6623 C 1871.3262,1215.2983 1871.3829,1217.7057 1869.8339,1218.222 C 1868.628,1218.624 1869.2596,1219.3749 1873.5,1222.5799 C 1875.7816,1224.3044 1877.8658,1224.4138 1853.5,1221.5304 C 1845.8,1220.6191 1837.7,1220.1016 1835.5,1220.3802 C 1832.6327,1220.7434 1828.2436,1219.8791 1820,1217.3279 C 1813.675,1215.3705 1806.475,1213.4096 1804,1212.9703 C 1801.525,1212.5311 1798.2332,1211.6831 1796.6849,1211.0859 C 1791.6546,1209.1456 1790.3416,1209.6702 1793.0398,1212.5423 C 1795.0022,1214.6313 1795.223,1215.4133 1794.2776,1216.9271 C 1793.6447,1217.9405 1793.3759,1219.7214 1793.6801,1220.8848 C 1793.9843,1222.0481 1793.9687,1223 1793.6454,1223 C 1793.3221,1223 1789.3585,1221.65 1784.8374,1220 C 1776.1281,1216.8215 1770.552,1216.1046 1771.226,1218.25 C 1771.442,1218.9375 1773.0545,1220.1437 1774.8094,1220.9305 C 1777.8752,1222.305 1779.0849,1224 1777,1224 C 1775.1527,1224 1775.9778,1225.6501 1778.5,1227 C 1779.875,1227.7359 1781,1228.9283 1781,1229.6498 C 1781,1231.2753 1774.7764,1230.6179 1764.2684,1227.8825 C 1755.3327,1225.5564 1745.5202,1225.3074 1746.3337,1227.4273 C 1746.7837,1228.5999 1746.3543,1228.6709 1743.9282,1227.8251 C 1742.3039,1227.2589 1740.2796,1227.0625 1739.4296,1227.3886 C 1738.1317,1227.8867 1738.2939,1228.5187 1740.4421,1231.3352 C 1743.0411,1234.7427 1743.7107,1237 1742.1224,1237 C 1741.6398,1237 1740.6847,1236.325 1740,1235.5 C 1736.7896,1231.6317 1731.1123,1236.7476 1733.8142,1241.0741 C 1734.4757,1242.1333 1734.7052,1243 1734.3242,1243 C 1732.8831,1243 1725.111,1238.8386 1723.9585,1237.45 C 1723.2966,1236.6525 1721.7174,1236 1720.449,1236 C 1719.1806,1236 1717.5442,1235.4013 1716.8125,1234.6696 C 1716.0808,1233.9379 1714.9803,1233.5066 1714.367,1233.711 C 1713.7536,1233.9155 1711.8927,1232.9391 1710.2315,1231.5414 C 1706.7437,1228.6065 1706,1228.4235 1706,1230.5 C 1706,1232.7413 1705.0637,1232.3439 1701.9551,1228.7835 L 1699.1468,1225.567 L 1698.4724,1228.254 C 1698.0089,1230.1008 1698.2986,1231.4414 1699.399,1232.5419 C 1700.2796,1233.4224 1701,1234.8253 1701,1235.6593 C 1701,1236.8767 1700.2042,1237.0413 1696.9654,1236.4942 C 1694.4536,1236.0698 1692.4178,1236.2383 1691.5715,1236.9406 C 1690.0478,1238.2052 1683.4738,1236.053 1679,1232.825 C 1677.6157,1231.8261 1674.0456,1230.8166 1671,1230.5628 C 1667.975,1230.3108 1663.7012,1229.4483 1661.5026,1228.6462 C 1659.3041,1227.844 1657.1666,1227.3971 1656.7526,1227.6529 C 1655.4465,1228.4601 1655.9369,1230 1657.5,1230 C 1658.325,1230 1659,1230.45 1659,1231 C 1659,1231.55 1658.2769,1232 1657.393,1232 C 1656.3357,1232 1655.9945,1232.5433 1656.3955,1233.5883 C 1656.9174,1234.9482 1656.3935,1235.0753 1652.7525,1234.4722 C 1650.4136,1234.0847 1647.7421,1233.37 1646.8157,1232.8839 C 1644.2033,1231.5129 1642,1231.8377 1642,1233.5936 C 1642,1234.4701 1642.9,1235.4226 1644,1235.7103 C 1645.9769,1236.2272 1646.834,1238 1645.107,1238 C 1643.0773,1238 1643.0087,1241.5205 1644.9863,1244.1954 C 1646.1268,1245.7379 1646.5964,1247 1646.0299,1247 C 1645.4635,1247 1645,1247.6447 1645,1248.4326 C 1645,1250.4182 1642.2514,1251.0958 1636.4416,1250.5425 C 1632.1494,1250.1337 1631.733,1250.2482 1633.2733,1251.4132 C 1634.9574,1252.6871 1634.9491,1252.7801 1633.1076,1253.2616 C 1632.0412,1253.5405 1630.6723,1253.2723 1630.0656,1252.6656 C 1629.2615,1251.8615 1629.137,1252.4349 1629.6062,1254.7812 C 1630.2935,1258.2177 1628.6134,1259.2134 1626.2,1256.8 C 1625.3448,1255.9448 1625,1255.9257 1625,1256.7336 C 1625,1257.357 1623.7897,1258.0095 1622.3105,1258.1836 C 1619.7448,1258.4854 1619.7021,1258.5805 1621.382,1260.25 C 1622.8556,1261.7146 1622.8942,1262 1621.6185,1262 C 1619.5941,1262 1615,1259.8741 1615,1258.9373 C 1615,1258.5294 1613.65,1257.725 1612,1257.1498 C 1607.2677,1255.5001 1608.3954,1258.6167 1613.5,1261.295 C 1616.8751,1263.0659 1622,1267.6523 1622,1268.9018 C 1622,1270.3821 1616.9728,1268.7993 1615.6426,1266.9001 C 1614.5128,1265.2871 1613.9345,1265.1984 1611.2215,1266.2225 C 1608.5877,1267.2166 1607.8068,1267.1351 1606.2214,1265.7003 C 1605.188,1264.7651 1603.8155,1264 1603.1713,1264 C 1601.154,1264 1601.894,1266.64 1604.25,1267.8485 C 1606.1751,1268.836 1605.8863,1268.9176 1602.25,1268.4134 C 1598.7103,1267.9227 1598,1268.1035 1598,1269.4954 C 1598,1270.4146 1597.4375,1270.9671 1596.75,1270.7231 C 1596.0625,1270.4791 1595.6072,1269.3166 1595.7382,1268.1398 C 1595.8931,1266.7481 1595.4187,1266 1594.3812,1266 C 1593.3741,1266 1592.9982,1266.553 1593.3616,1267.5 C 1593.7569,1268.53 1593.3007,1269 1591.9058,1269 C 1590.5699,1269 1589.9352,1269.5992 1590.0523,1270.75 C 1590.4403,1274.5648 1590.0187,1275.2367 1587.5349,1274.7619 C 1584.5321,1274.1879 1583.9315,1275.5698 1585.5262,1279.384 C 1586.5641,1281.8663 1586.4721,1282.5279 1584.866,1284.134 C 1583.8397,1285.1603 1582.0655,1286 1580.9234,1286 C 1579.1346,1286 1578.8903,1286.5198 1579.1606,1289.75 C 1579.5105,1293.9323 1579.7195,1293.8793 1567.8629,1292.6157 C 1563.3834,1292.1383 1563.2057,1292.2214 1562.6379,1295.0607 C 1562.1701,1297.3993 1561.5241,1298 1559.4767,1298 C 1558.0614,1298 1555.0406,1298.9 1552.7639,1300 C 1550.4871,1301.1 1547.8354,1302 1546.8712,1302 C 1545.907,1302 1544.8399,1302.45 1544.5,1303 C 1544.1601,1303.55 1542.8101,1304 1541.5,1304 C 1540.1899,1304 1538.8706,1304.4003 1538.5683,1304.8895 C 1537.9596,1305.8745 1532.0054,1307.0376 1527.7761,1306.9978 C 1525.5858,1306.9772 1525.1816,1307.3178 1525.7133,1308.7361 C 1526.2578,1310.1888 1526.115,1310.2895 1524.9037,1309.3072 C 1524.0395,1308.6063 1522.8751,1308.4592 1522.0803,1308.9504 C 1521.0068,1309.6138 1521.1685,1310.1638 1522.8638,1311.6154 C 1525.5495,1313.915 1525.6141,1316.6062 1523,1317.2897 C 1521.9,1317.5774 1521,1318.5067 1521,1319.3549 C 1521,1321.2225 1517.2057,1325.3887 1514.6439,1326.3338 C 1513.2487,1326.8486 1512.9431,1327.637 1513.413,1329.5093 C 1513.7568,1330.8792 1513.692,1331.9935 1513.2691,1331.9854 C 1511.8945,1331.9594 1503.9072,1328.9924 1500.157,1327.1148 C 1498.1457,1326.1077 1495.2209,1324.9759 1493.6575,1324.5996 C 1492.0941,1324.2233 1488.5254,1322.8109 1485.727,1321.461 C 1481.0507,1319.205 1480.4514,1319.1294 1478.3195,1320.5263 C 1477.0438,1321.3622 1476,1322.6949 1476,1323.4879 C 1476,1324.6836 1472.0741,1327.726 1471.25,1327.169 C 1469.884,1326.2456 1469.0878,1327.5914 1469.4272,1330.25 C 1469.9487,1334.3339 1467.9667,1337.3053 1465.3771,1336.322 C 1464.3447,1335.93 1462.15,1334.3493 1460.5,1332.8093 C 1457.2997,1329.8223 1452.6717,1328.6946 1454.9679,1331.4613 C 1455.6349,1332.265 1456.965,1333.1715 1457.9236,1333.4758 C 1460.7278,1334.3658 1460.2196,1339.5789 1457.1943,1340.9573 C 1455.8345,1341.5769 1453.8518,1343.19 1452.7884,1344.5419 C 1450.9455,1346.8848 1447,1347.9678 1447,1346.1308 C 1447,1345.6528 1445.5375,1344.984 1443.75,1344.6446 C 1441.9625,1344.3052 1436.9388,1342.9577 1432.5861,1341.6502 C 1420.996,1338.1686 1418.196,1339.5118 1424.178,1345.6836 L 1427.356,1348.9625 L 1424.2533,1348.0726 C 1422.5468,1347.5832 1420.9335,1347.3998 1420.6683,1347.665 C 1420.4031,1347.9302 1417.1067,1348.4516 1413.343,1348.8236 C 1407.2509,1349.4258 1406.4649,1349.7469 1406.1804,1351.75 C 1405.802,1354.4145 1404.4039,1354.5455 1399.0797,1352.4152 C 1396.9013,1351.5436 1394.3368,1350.9811 1393.3809,1351.1652 C 1391.7332,1351.4826 1391.7338,1351.591 1393.3928,1353.25 C 1394.3553,1354.2125 1394.7357,1355 1394.2381,1355 C 1393.7405,1355 1393.0203,1354.687 1392.6377,1354.3044 C 1392.2551,1353.9218 1391.3926,1353.5376 1390.7211,1353.4506 C 1381.3482,1352.2363 1378,1352.1154 1378,1352.9913 C 1378,1353.5461 1376.875,1354 1375.5,1354 C 1373.692,1354 1373,1354.5373 1373,1355.941 C 1373,1357.0085 1372.5846,1358.1387 1372.0769,1358.4525 C 1371.5693,1358.7662 1370.8643,1360.3415 1370.5103,1361.9531 C 1369.9843,1364.3481 1369.2854,1364.9395 1366.6834,1365.1916 C 1364.0621,1365.4455 1363.4449,1365.9771 1363.1882,1368.2022 C 1362.9932,1369.892 1362.0961,1371.1521 1360.7938,1371.5654 C 1358.1675,1372.399 1353,1377.6206 1353,1379.4409 C 1353,1380.305 1352.2839,1380.6255 1351.0653,1380.3068 C 1349.5056,1379.899 1348.9282,1380.553 1348.0858,1383.6814 C 1347.5111,1385.8156 1346.371,1388.4479 1345.5523,1389.5309 C 1344.7335,1390.6139 1344.0493,1392.752 1344.0318,1394.2821 C 1343.9581,1400.7328 1335.1405,1413.9321 1327.6532,1418.7999 C 1325.3689,1420.285 1323.3548,1421.8232 1323.1773,1422.2182 C 1322.9997,1422.6133 1320.4051,1424.3379 1317.4113,1426.0507 C 1312.2622,1428.9968 1295.843,1446.1332 1275.1641,1470.1434 C 1271.6794,1474.1895 1266.6638,1479.975 1264.0184,1483 C 1255.3206,1492.9458 1252.319,1497.5494 1250.1455,1504.2771 C 1247.361,1512.8961 1247.4067,1515.5652 1250.3722,1517.5082 C 1255.5793,1520.92 1290.7966,1523.3397 1299.0887,1520.8553 C 1302.2936,1519.8951 1303.3198,1519.9795 1305.4562,1521.3793 C 1306.857,1522.2972 1309.6898,1522.9908 1311.7515,1522.9207 C 1319.2701,1522.6651 1332.2517,1524.0792 1334.8423,1525.4361 C 1336.304,1526.2016 1338.9986,1528.3054 1340.8302,1530.1111 C 1344.1767,1533.4102 1348.5455,1540.7878 1347.6707,1541.6626 C 1346.97,1542.3633 1338.824,1540.0447 1336.2942,1538.4245 C 1333.6186,1536.711 1324.1506,1536.4113 1318,1537.8454 C 1315.525,1538.4225 1311.8913,1539.149 1309.9252,1539.4598 C 1307.9591,1539.7706 1305.4396,1540.8734 1304.3265,1541.9105 C 1301.315,1544.7161 1268.4689,1546.2953 1252.2833,1544.4128 C 1229.7624,1541.7934 1202.9324,1540.726 1175.5,1541.3581 C 1133.897,1542.3166 1108.1191,1545.3252 1067.9456,1553.9106 C 1060.4578,1555.5109 1053.952,1556.0117 1037.8661,1556.2262 L 1017.341,1556.5 L 1012.5723,1552.5 C 1004.3505,1545.6034 1004.5332,1545.6715 992.97948,1545.1955 C 982.23322,1544.7527 982.08168,1544.7782 977.04998,1547.8742 C 974.25597,1549.5934 971.34895,1551 970.58994,1551 C 969.83093,1551 968.15019,1552.1449 966.85496,1553.5442 C 963.26895,1557.4184 959.2817,1559.2208 955.92701,1558.484 C 954.31715,1558.1304 953,1557.2104 953,1556.4396 C 953,1555.6688 951.79687,1554.7361 950.32639,1554.3671 C 947.29912,1553.6073 933.47216,1555.6048 927.62427,1557.6467 C 922.98356,1559.2671 920,1559.3859 920,1557.9503 z M 1383.25,1347.3377 C 1382.5625,1347.0603 1381.4375,1347.0603 1380.75,1347.3377 C 1380.0625,1347.6151 1380.625,1347.8421 1382,1347.8421 C 1383.375,1347.8421 1383.9375,1347.6151 1383.25,1347.3377 z M 968.5,1295 C 968.16008,1294.45 967.43197,1294 966.88197,1294 C 966.33197,1294 966.16008,1294.45 966.5,1295 C 966.83992,1295.55 967.56803,1296 968.11803,1296 C 968.66803,1296 968.83992,1295.55 968.5,1295 z M 1617,724.5 C 1615.6361,722.85662 1612,722.44243 1612,723.93045 C 1612,724.72902 1613.4536,725.25211 1617.3724,725.86382 C 1617.8523,725.93872 1617.6847,725.325 1617,724.5 z M 1780,1226.0314 C 1780,1225.4986 1780.675,1225.3218 1781.5,1225.6384 C 1782.325,1225.955 1783,1226.3908 1783,1226.607 C 1783,1226.8231 1782.325,1227 1781.5,1227 C 1780.675,1227 1780,1226.5641 1780,1226.0314 z "
     id="path2161" />
</svg>
